<?xml version="1.0" standalone="no"?>
<!DOCTYPE svg PUBLIC "-//W3C//DTD SVG 20010904//EN"
 "http://www.w3.org/TR/2001/REC-SVG-20010904/DTD/svg10.dtd">
<svg version="1.0" xmlns="http://www.w3.org/2000/svg"
 width="273.000000pt" height="100.000000pt" viewBox="0 0 273.000000 100.000000"
 preserveAspectRatio="xMidYMid meet">
<metadata>
Created by potrace 1.16, written by Peter Selinger 2001-2019
</metadata>
<g transform="translate(0.000000,100.000000) scale(0.100000,-0.100000)"
fill="#000000" stroke="none">
<path d="M240 733 c-91 -82 -114 -177 -66 -278 34 -74 126 -147 183 -144 10 0
-3 7 -28 15 -26 7 -53 21 -60 31 -13 15 -12 15 11 0 76 -49 187 -41 268 21 26
19 38 25 28 13 -31 -35 -78 -60 -142 -75 -32 -8 -50 -15 -38 -15 45 -2 123 30
168 70 41 36 64 71 34 53 -7 -4 -8 -3 -4 5 4 6 12 9 17 5 16 -9 39 62 39 121
0 31 -7 69 -15 86 -9 16 -13 35 -9 41 5 7 0 9 -14 6 -12 -4 -25 -2 -28 3 -3 5
6 9 20 9 24 0 26 4 26 40 l0 40 -131 0 c-155 0 -194 -10 -257 -64 -26 -22 -38
-30 -27 -17 11 13 38 37 59 52 21 16 34 29 29 29 -6 0 -35 -21 -63 -47z m170
-42 c-37 -3 -78 -14 -93 -24 -38 -25 -34 -31 6 -7 23 15 50 20 98 20 60 0 67
-2 95 -32 16 -17 23 -27 15 -23 -11 6 -13 4 -8 -9 4 -10 7 -25 7 -34 0 -14 2
-14 9 -3 7 11 10 9 16 -7 3 -12 1 -30 -5 -39 -10 -16 -10 -15 -5 5 4 12 4 22
1 22 -3 0 -9 -15 -14 -32 -6 -18 -13 -42 -18 -52 -6 -15 -4 -17 7 -11 8 5 6
-1 -5 -13 -27 -31 -98 -56 -138 -48 -43 8 -94 39 -108 67 -7 12 -8 19 -3 16 4
-3 8 23 8 56 0 34 4 71 9 81 8 15 6 18 -5 11 -11 -7 -11 -5 1 10 31 39 73 55
135 53 l60 -1 -65 -6z"/>
<path d="M860 678 c-19 -13 -44 -40 -55 -60 -18 -35 -19 -38 -3 -72 20 -41 78
-82 128 -90 30 -4 28 -3 -10 10 -25 8 -56 24 -70 35 l-25 21 35 -20 c19 -10
56 -25 82 -32 26 -7 53 -20 60 -28 10 -12 10 -14 1 -8 -7 4 -13 2 -13 -3 0
-16 -85 -13 -127 4 -20 8 -38 13 -40 11 -12 -11 90 -38 135 -35 28 2 48 1 45
-3 -8 -14 -102 -9 -139 7 -40 17 -54 13 -54 -15 0 -10 -4 -21 -9 -24 -4 -3 -7
7 -5 22 4 27 4 26 -6 -2 -6 -21 -6 -34 2 -43 15 -19 75 -43 102 -42 15 1 13 3
-9 9 -40 10 -85 28 -85 34 0 3 17 -1 38 -8 93 -33 173 -27 219 16 18 17 23 18
27 7 2 -8 7 -21 9 -29 3 -8 6 2 6 23 1 21 -2 36 -6 34 -5 -3 -8 14 -8 38 0 24
3 41 8 38 4 -2 7 44 7 104 0 66 -4 103 -9 94 -7 -11 -17 -12 -54 -2 -71 17
-137 14 -175 -9 -19 -12 -31 -16 -27 -10 17 28 70 42 134 37 36 -2 75 -8 86
-12 20 -6 20 -6 0 6 -10 7 -51 14 -90 17 -61 3 -74 1 -105 -20z"/>
<path d="M1313 684 c-18 -9 -48 -34 -67 -55 l-35 -38 -3 47 c-2 26 -4 -33 -5
-131 -1 -98 0 -177 3 -175 2 3 5 35 6 73 1 38 4 62 6 54 3 -7 9 -22 14 -33 7
-13 7 -16 -1 -12 -27 17 -7 -15 33 -52 42 -38 112 -68 139 -59 7 2 -6 7 -28
11 -51 10 -84 28 -115 62 -23 26 -22 26 12 -3 40 -34 107 -58 138 -49 54 16
65 16 35 0 l-30 -15 28 6 c26 5 28 4 22 -16 -5 -16 -4 -20 6 -14 8 3 3 -3 -10
-14 -31 -28 -103 -28 -156 -1 -21 11 -39 19 -40 17 -1 -1 -7 -18 -13 -37 l-11
-35 4 35 c5 31 4 32 -5 11 -6 -14 -9 -30 -6 -36 2 -7 36 -22 76 -35 66 -21 75
-22 128 -9 31 7 62 14 69 14 19 1 54 38 49 52 -3 7 0 12 6 10 6 -1 16 13 21
31 9 29 14 32 48 32 l39 0 2 123 2 122 5 -120 5 -120 6 130 5 130 30 0 30 0 5
-130 6 -130 5 120 5 120 2 -122 2 -123 40 0 40 0 0 128 c0 112 2 131 18 145
21 19 50 22 72 7 11 -7 6 -8 -17 -4 -58 11 -63 -2 -61 -145 l2 -126 6 130 5
130 30 0 30 0 5 -130 6 -130 5 120 5 120 2 -122 2 -123 40 0 40 0 0 125 c0
139 -10 178 -55 213 -33 26 -105 30 -147 8 -24 -13 -32 -13 -59 1 -40 20 -121
13 -152 -13 -13 -10 -10 -7 5 9 16 15 24 27 19 27 -13 0 -81 -78 -81 -94 0 -7
-24 11 -53 41 -30 29 -60 53 -68 53 -8 0 0 -8 16 -19 17 -10 41 -31 55 -47 18
-21 14 -19 -17 8 -70 62 -164 64 -237 7 -22 -18 -35 -25 -27 -16 31 38 75 60
135 67 l61 7 -50 1 c-28 1 -64 -6 -82 -14z m122 -88 c18 -8 39 -24 45 -36 8
-15 8 -20 1 -16 -7 5 -11 -2 -11 -16 0 -16 3 -19 9 -10 7 11 9 11 14 -1 3 -7
2 -20 -3 -27 -6 -10 -9 -9 -13 1 -4 10 -6 9 -6 -3 -1 -9 -4 -24 -8 -34 -5 -13
-3 -15 8 -9 8 5 6 -1 -5 -13 -10 -12 -34 -24 -53 -28 -33 -6 -88 9 -99 28 -4
5 8 3 24 -6 17 -9 44 -15 59 -15 24 1 22 2 -9 9 -21 4 -46 14 -56 23 -10 10
-21 14 -25 11 -3 -3 -4 2 -2 13 13 62 13 93 2 87 -7 -4 -3 3 8 15 36 41 68 48
120 27z"/>
<path d="M1731 691 c31 -3 63 -12 71 -19 12 -10 21 -9 44 3 16 8 51 15 78 15
43 0 53 -4 86 -38 37 -37 47 -66 65 -187 4 -24 3 -26 -4 -10 -7 14 -9 -2 -9
-55 1 -48 3 -59 5 -30 3 25 9 50 14 55 7 7 8 4 4 -6 -4 -10 -1 -20 6 -25 8 -5
10 -3 4 7 -5 8 10 -3 33 -23 64 -58 114 -66 207 -33 16 6 17 5 5 -4 -56 -41
-145 -32 -205 20 -19 17 -35 27 -35 21 0 -15 73 -62 114 -73 25 -7 48 -6 78 2
24 7 64 11 91 10 l47 -3 0 105 c0 58 -5 118 -11 134 -8 23 -8 26 3 15 8 -8 15
-53 19 -130 l5 -117 2 105 c2 123 -12 166 -73 218 -45 40 -74 52 -125 52 -53
0 -82 -13 -129 -56 -37 -33 -57 -65 -30 -48 8 4 8 1 1 -12 -5 -11 -12 -26 -16
-34 -3 -8 -4 -2 -1 13 3 17 2 26 -4 23 -5 -3 -12 5 -15 18 -3 13 -24 40 -46
60 -34 31 -47 36 -88 36 -26 0 -60 -7 -75 -15 -26 -13 -31 -13 -50 0 -13 9
-41 14 -72 14 l-50 -2 56 -6z m589 -118 c14 -14 20 -23 14 -20 -8 4 -10 -9 -6
-42 4 -43 2 -50 -24 -70 -29 -23 -64 -25 -108 -6 -15 6 -17 5 -11 -5 5 -9 4
-11 -3 -6 -7 4 -17 17 -22 29 -10 19 -9 20 2 6 11 -14 13 -7 13 42 0 35 -4 55
-10 51 -5 -3 -1 5 10 17 42 48 102 50 145 4z"/>
<path d="M1109 573 c-1 -60 -1 -119 -1 -133 -1 -14 0 -46 1 -72 l1 -48 40 0
40 0 0 180 0 180 -40 0 -40 0 -1 -107z"/>
</g>
</svg>
